<svg id="Layer_1" data-name="Layer 1" xmlns="http://www.w3.org/2000/svg" viewBox="0 0 100 100"><defs><style>.cls-1{fill:#082e45;}</style></defs><path class="cls-1" d="M20.94,47.72a123.65,123.65,0,0,1,7.69-10.34A5,5,0,0,1,35.8,37l.44.35c2.39,1.87,4.72,3.79,7,5.75,0,0,.28.28.24.14s0,0-.06,0l3.19-3.1c1-1,3.73-3.57,4.8-4.43a5.85,5.85,0,0,1,8.14,1.15c1.54,1.56,3.26,3.28,4.75,4.88.18.22,1.84,1.92,1.94,2.11a1,1,0,0,0,1.49-.11c.34-.24,1-.79,1.37-1,2.46-1.79,5-3.56,7.59-5.16-1.75,2.55-3.64,4.94-5.57,7.3-.23.32-.86,1-1.09,1.31a4.86,4.86,0,0,1-7.12.46c-2.34-1.8-4.82-3.8-7.08-5.69L55,40.21a.06.06,0,0,0,0,0c0,.05,0,.05,0,.07s-.85.87-1,1c-1.63,1.6-4.95,4.77-6.63,6.32a5.79,5.79,0,0,1-8-.31q-3.54-3.46-6.95-7.09A.79.79,0,0,0,31.28,40a124.11,124.11,0,0,1-10.34,7.68Z"/><path class="cls-1" d="M24.16,66.38A125.9,125.9,0,0,1,31.85,56,5,5,0,0,1,39,55.67l.44.35c2.39,1.87,4.72,3.79,7,5.75,0,0,.29.29.24.14s0,0-.06,0l3.19-3.1c1-1,3.74-3.58,4.8-4.44a5.86,5.86,0,0,1,8.14,1.15c1.55,1.57,3.26,3.28,4.75,4.88.18.23,1.84,1.93,1.94,2.11A1,1,0,0,0,71,62.37c.34-.24,1-.79,1.37-1,2.46-1.8,5-3.56,7.59-5.17-1.74,2.55-3.64,5-5.56,7.31-.24.32-.87,1-1.1,1.31a4.84,4.84,0,0,1-7.11.45c-2.34-1.79-4.82-3.8-7.09-5.69l-.82-.69s0,0,0,0,0,.05,0,.07-.86.87-1,1c-1.62,1.6-4.95,4.77-6.62,6.31a5.8,5.8,0,0,1-8-.31q-3.54-3.46-6.95-7.08a.78.78,0,0,0-1.2-.18,122.07,122.07,0,0,1-10.35,7.68Z"/></svg>