<svg id="Layer_1" data-name="Layer 1" xmlns="http://www.w3.org/2000/svg" viewBox="0 0 100 100"><defs><style>.cls-1{fill:#082e45;}</style></defs><path class="cls-1" d="M15.66,41.52c-.63-6.46,1.21-14,7.15-17.62a14.6,14.6,0,0,1,7.59-2,12.48,12.48,0,0,1,6.3,2.25c11.35,8,13.63,26.76,13.6,39.58A100.31,100.31,0,0,1,49,79.38c-.64-3.21-1.13-6.44-1.55-9.65-2.18-11.93-4.23-31.23-12.75-40A9.28,9.28,0,0,0,30.05,27a10.75,10.75,0,0,0-5.25.72c-5.3,2.32-7.73,8.49-9.14,13.85Z"/><path class="cls-1" d="M82.66,41.52c-1.4-5.36-3.84-11.53-9.13-13.85A10.75,10.75,0,0,0,68.28,27a9.24,9.24,0,0,0-4.66,2.76c-8.52,8.78-10.57,28.08-12.75,40-.43,3.21-.91,6.44-1.55,9.65A101.55,101.55,0,0,1,48,63.7c0-12.83,2.24-31.56,13.6-39.58a12.48,12.48,0,0,1,6.31-2.25,14.63,14.63,0,0,1,7.59,2c5.94,3.66,7.78,11.16,7.14,17.62Z"/></svg>