<svg id="Layer_1" data-name="Layer 1" xmlns="http://www.w3.org/2000/svg" viewBox="0 0 100 100"><defs><style>.cls-1{fill:#f0cee3;}.cls-2{fill:#fff;}</style></defs><path class="cls-1" d="M57.48,26.24a20.47,20.47,0,0,1,0,10.37,20.36,20.36,0,0,1,0-10.37Z"/><path class="cls-1" d="M62.66,31.42a20.36,20.36,0,0,1-10.37,0,20.47,20.47,0,0,1,10.37,0Z"/><path class="cls-1" d="M60.68,34.63a23.42,23.42,0,0,1-6.41-6.41,23,23,0,0,1,6.41,6.41Z"/><path class="cls-1" d="M60.68,28.22a23.15,23.15,0,0,1-6.41,6.41,23.15,23.15,0,0,1,6.41-6.41Z"/><path class="cls-1" d="M56.08,67.53A25.21,25.21,0,0,1,42.63,21a29.49,29.49,0,1,0,36.82,30.8A25.23,25.23,0,0,1,56.08,67.53Z"/><line class="cls-2" x1="48.67" y1="36.47" x2="52.57" y2="40.38"/><path class="cls-1" d="M48.67,36.47a8.78,8.78,0,0,1,3.9,3.91,8.83,8.83,0,0,1-3.9-3.91Z"/><line class="cls-2" x1="52.57" y1="36.47" x2="48.67" y2="40.38"/><path class="cls-1" d="M52.57,36.47a8.73,8.73,0,0,1-3.9,3.91,8.78,8.78,0,0,1,3.9-3.91Z"/><polygon class="cls-1" points="62.77 46.8 61 47.88 59.88 51.26 58.77 47.88 56.99 46.8 58.77 45.73 59.88 42.35 61 45.73 62.77 46.8"/></svg>