<svg id="Layer_1" data-name="Layer 1" xmlns="http://www.w3.org/2000/svg" viewBox="0 0 100 100"><defs><style>.cls-1{fill:#082e45;}.cls-2{fill:none;stroke:#082e45;stroke-linecap:round;stroke-linejoin:round;stroke-width:6px;}</style></defs><path class="cls-1" d="M19.21,32.87a15.11,15.11,0,0,1,6.92-9.51C30.4,21,36.37,21.61,39.3,25.9c1.81,2.59,1.44,5.88,1.51,8.73q0,7.38-.64,14.77a95.67,95.67,0,0,1-2.36,14.78c-2.64-10.94-3.1-22.09-3-33.25.12-2.11-1-3.34-3-3.9-5-1.41-9.26,2.36-12.63,5.84Z"/><path class="cls-1" d="M63.88,65.51C57.11,67,54.3,58.34,53.93,53a172.86,172.86,0,0,1-.71-20c.08-3,.6-4.87-3-5.88-4.42-1.17-8.94,2.4-12.13,5.68,1.56-7.87,10.09-14.33,18-9.54a8.93,8.93,0,0,1,4,7.12c.14,1.63.11,5,.14,6.64,0,5.35-.24,10.69-.75,16-.37,4.39-.82,10.86,4.46,12.39Z"/><ellipse class="cls-2" cx="65.66" cy="56.56" rx="8.55" ry="8.6"/><path class="cls-1" d="M59.53,55.05l-23,30.33L54.47,51.82a3,3,0,1,1,5.06,3.23Z"/></svg>