<svg id="Layer_1" data-name="Layer 1" xmlns="http://www.w3.org/2000/svg" viewBox="0 0 100 100"><defs><style>.cls-1{fill:#f0cee3;}.cls-2{fill:#fff;}</style></defs><path class="cls-1" d="M56,67.52A25.27,25.27,0,0,1,42.74,21a29.52,29.52,0,0,0,7.32,58A29.22,29.22,0,0,0,79,51.78,24.84,24.84,0,0,1,56,67.52Z"/><path class="cls-1" d="M60.91,18.65a33.22,33.22,0,0,1,0,16.89,33.11,33.11,0,0,1,0-16.89Z"/><path class="cls-1" d="M69.35,27.1a33.22,33.22,0,0,1-16.89,0,33,33,0,0,1,16.89,0Z"/><path class="cls-1" d="M66.13,32.32A37.73,37.73,0,0,1,55.69,21.88,37.73,37.73,0,0,1,66.13,32.32Z"/><path class="cls-1" d="M66.13,21.88A38,38,0,0,1,55.69,32.32,37.46,37.46,0,0,1,66.13,21.88Z"/><line class="cls-2" x1="47.13" y1="34" x2="53.49" y2="40.36"/><path class="cls-1" d="M47.13,34a14.28,14.28,0,0,1,6.36,6.36A14.33,14.33,0,0,1,47.13,34Z"/><line class="cls-2" x1="53.49" y1="34" x2="47.13" y2="40.36"/><path class="cls-1" d="M53.49,34a14.33,14.33,0,0,1-6.36,6.36A14.28,14.28,0,0,1,53.49,34Z"/><polygon class="cls-1" points="69.94 43.87 67.05 45.63 65.24 51.13 63.42 45.63 60.53 43.87 63.42 42.12 65.24 36.62 67.05 42.12 69.94 43.87"/></svg>