<svg id="Layer_1" data-name="Layer 1" xmlns="http://www.w3.org/2000/svg" viewBox="0 0 100 100"><defs><style>.cls-1,.cls-3{fill:none;stroke:#082e45;stroke-width:6px;}.cls-1{stroke-miterlimit:10;}.cls-2{fill:#082e45;}.cls-3{stroke-linecap:round;stroke-linejoin:round;}</style></defs><ellipse class="cls-1" cx="36.65" cy="55.65" rx="10.73" ry="10.64"/><path class="cls-2" d="M46.82,52.22a57.85,57.85,0,0,1-3.81-16A12.22,12.22,0,0,1,44,30c2.3-6.7,13.79-11.82,21.32-6.35,7.69,5.32,7.38,15.48,3.9,23l-3.55,6.86c-1.92,3.67-5.12,9.15-5.75,13.24-.64,3.24-.54,6.45,1.33,9.07,1.82,2.42,5.58,2.89,8.23,1.64C74,75.08,73.44,69,73.16,64.6c1.27,3.69,2.24,8,.68,11.83-1.77,4.39-7.37,6.15-11.69,4.77-6.27-1.84-8.36-9.6-7.38-15.29a34.72,34.72,0,0,1,4-11.7c1.06-2.19,4-8,5.13-10.28,1.56-3.56,3.22-10.52-.35-14.39C59.57,24.18,50,26.3,47.15,32A10,10,0,0,0,46,36.27c-.41,5.28.22,10.68.81,15.95Z"/><path class="cls-3" d="M46.82,52.22S42.57,35.77,45.58,31c0,0,1.81-5.1,9-6.8a11,11,0,0,1,9.94,2.33c3.31,2.95,6.33,8.59,2,18.75"/></svg>