<svg id="Layer_1" data-name="Layer 1" xmlns="http://www.w3.org/2000/svg" viewBox="0 0 100 100"><defs><style>.cls-1{fill:#082e45;}</style></defs><path class="cls-1" d="M11.24,74.88a331.63,331.63,0,0,1,38.84-2,327.28,327.28,0,0,1,38.83,2,325.19,325.19,0,0,1-38.83,2,329.48,329.48,0,0,1-38.84-2Z"/><path class="cls-1" d="M88.91,60.91c-8.65.94-17.71,1.5-26.42,2A1.93,1.93,0,0,1,61,59.64a16.58,16.58,0,0,0,3.51-18c-8.05-17.47-33.13-9.58-30.21,9.3a16.76,16.76,0,0,0,4.39,8.54,1.94,1.94,0,0,1-1.35,3.41c-3.86-.24-9.4-.5-13.21-.81q-6.61-.45-13.22-1.16,6.61-.72,13.22-1.17c3.78-.27,9.35-.61,13.21-.8L36,62.34C21.46,49.69,30.81,26,49.91,25.89,69,26,78.35,49.68,63.83,62.33L62.49,59c8.72.45,17.76,1,26.42,2Z"/></svg>