<svg id="Layer_1" data-name="Layer 1" xmlns="http://www.w3.org/2000/svg" viewBox="0 0 100 100"><defs><style>.cls-1{fill:#082e45;}</style></defs><path class="cls-1" d="M34.73,50.88c9-4.05,21.41-4.08,30.37,0-9,4.08-21.4,4.06-30.37,0Z"/><path class="cls-1" d="M27.91,75.88C39.51,66,44.75,51.39,37.38,37.5a42.45,42.45,0,0,0-9.47-11.62,25.4,25.4,0,0,1,13.41,9c11.28,14.26,4.14,36.31-13.41,41Z"/><path class="cls-1" d="M71.91,25.88c-11.59,9.89-16.83,24.5-9.46,38.39a42.41,42.41,0,0,0,9.46,11.61,25.3,25.3,0,0,1-13.4-9c-11.28-14.26-4.14-36.31,13.4-41Z"/></svg>