<svg id="Layer_1" data-name="Layer 1" xmlns="http://www.w3.org/2000/svg" viewBox="0 0 100 100"><defs><style>.cls-1{fill:#082e45;}.cls-2{fill:none;stroke:#082e45;stroke-linecap:round;stroke-linejoin:round;stroke-width:5.96px;}</style></defs><path class="cls-1" d="M29.22,50a59.3,59.3,0,0,1,27.6,20.31A59.28,59.28,0,0,1,29.22,50Z"/><path class="cls-1" d="M70.71,21.8C65.14,33.46,58.06,44.11,50.57,54.54S35,74.89,25.61,83.76C31.17,72.1,38.25,61.45,45.75,51s15.58-20.34,25-29.23Z"/><line class="cls-2" x1="68.77" y1="25.56" x2="50.35" y2="49.92"/><path class="cls-1" d="M73.06,20c-5.85,8.83-22,8.24-30.22,3.31C53.06,21.2,63,22.76,73.06,20Z"/><path class="cls-1" d="M73.09,20c-.56,10.46,3,19.83,3,30.27-6.52-7.07-10.39-22.69-3-30.27Z"/><polygon class="cls-1" points="70.05 35.82 72.92 20.3 67.9 23.63 70.05 35.82"/><polygon class="cls-1" points="57 26.31 71.28 21.46 69.31 26.32 57 26.31"/></svg>