<svg id="Layer_1" data-name="Layer 1" xmlns="http://www.w3.org/2000/svg" viewBox="0 0 100 100"><defs><style>.cls-1{fill:#082e45;}.cls-2{fill:none;stroke:#082e45;stroke-linecap:round;stroke-linejoin:round;stroke-width:6px;}</style></defs><path class="cls-1" d="M87.91,35.43c-4.78-4.06-12.12-7.15-17.43-2.59-3.15,2.41-4.38,5.65-6.94,8.54-6.28,7.55-15.62,10.1-23.65,3.48a28,28,0,0,1-5.14-5.4c-1.56-2.26-3-4.75-5.4-6.61C24,28.29,16.7,31.38,11.91,35.43c4-6.77,12.66-11,19.94-6.3,4.87,2.77,7.07,8,11.56,11.12,5.81,4.5,11.37,2.22,16-2.63,2.8-3,4.82-6.38,8.54-8.48,7.26-4.68,15.93-.47,19.93,6.29Z"/><ellipse class="cls-2" cx="49.91" cy="60.34" rx="14.62" ry="14.54"/></svg>