<svg id="Layer_1" data-name="Layer 1" xmlns="http://www.w3.org/2000/svg" viewBox="0 0 100 100"><defs><style>.cls-1{fill:#082e45;}</style></defs><path class="cls-1" d="M12,39.25c.95-4.46,3.9-9,8.51-10.32,4.33-1.39,9.83.91,11.09,5.54.63,2.07.42,4.94.49,7-.06,9.63-.62,19.18-3,28.63-2.37-9.45-2.93-19-3-28.63l0-3.58c0-1.59.06-2.78-1.28-3.77-4.76-3-9.63,1.58-12.86,5.12Z"/><path class="cls-1" d="M29.17,39.25c.95-4.46,3.9-9,8.51-10.32,4.33-1.39,9.83.91,11.09,5.54.63,2.07.42,4.94.49,7-.06,9.63-.62,19.18-3,28.63-2.37-9.45-2.93-19-3-28.63l0-3.58c0-1.59.06-2.78-1.28-3.77-4.76-3-9.63,1.58-12.86,5.12Z"/><path class="cls-1" d="M84.66,62.79C80.79,68.6,73.81,75.31,67.48,73.22c-5.57-2.2-6.63-8.89-6.8-14.1s-.12-10.27,0-15.41l.13-3.85c0-2.2.6-4-.65-5.51-2-2.23-5.8-1.89-8.25-.24a21.75,21.75,0,0,0-5.43,5.14c1.3-4.61,4.65-9.4,9.75-10.17,4.24-.82,9.15,2.05,9.77,6.53.4,2.88.31,5.45.45,8.13.15,5.15.14,10.31,0,15.47-.16,4.42.82,9.94,3.7,10a7.06,7.06,0,0,0,3.46-.38c4-1.25,7.54-3.78,11-6.08Z"/><path class="cls-1" d="M57.82,84.88c3.8-7.25,8.12-14.16,11.95-21.3A49.54,49.54,0,0,0,74.28,53c.49-2.77,1.44-7-2.27-7.23-4.09-.3-5.94,4.38-7.13,7.85a13.78,13.78,0,0,1,1-6.92,7.21,7.21,0,0,1,10.46-3.47c2.45,1.6,3.07,4.71,3,7.29C79.14,62.5,66.57,77.4,57.82,84.88Z"/></svg>