<?xml version="1.0" encoding="utf-8"?>
<!-- Generator: Adobe Illustrator 26.0.2, SVG Export Plug-In . SVG Version: 6.00 Build 0)  -->
<svg version="1.1" id="visual" xmlns="http://www.w3.org/2000/svg" xmlns:xlink="http://www.w3.org/1999/xlink" x="0px" y="0px"
	 viewBox="0 0 900 900" style="enable-background:new 0 0 900 900;" xml:space="preserve">
<style type="text/css">
	.st0{fill:#FFFFFF;}
	.st1{fill:#EDEEB4;}
	.st2{fill:#F7D1F7;}
	.st3{fill:#346B6D;}
	.st4{fill:#F08360;}
</style>
<rect y="0" class="st0" width="900" height="900"/>
<g>
	<g>
		<g>
			<path class="st1" d="M543.6-62.5c49.6,0.3,95.2,30.6,114,76.7c9.4,23.2,11.5,49.2,6,73.6c-5.5,24.5-21,46.3-40.5,61.8
				c-39.1,31.3-95.1,35.5-138.5,10.3c-43.1-25.1-67.2-75-60-124.4C432-14.6,475.7-53.6,525-61.1C531.2-62,537.4-62.5,543.6-62.5
				c1,0,1.8-7,2.7-7c-26.5,0.1-52.4,8.6-73.7,24.5C452.8-30.1,438.9-9.9,430,13.1c-9.2,23.9-12,49.5-6.3,74.7
				c5.7,25.3,19.6,48.4,39.2,65.5c40.4,35.2,101,40,146.4,11.3c41.9-26.5,65.8-79.3,58.9-128.3c-7.4-52.6-49.4-95.6-101.8-104.1
				c-6.6-1.1-13.3-1.6-20-1.6C545.4-69.5,544.5-62.5,543.6-62.5z"/>
		</g>
	</g>
	<g>
		<g>
			<path class="st1" d="M248,63.7c21.5,0.3,41.3,13,49.8,33c2.1,4.9,3.4,10.2,4,15.5c0.8,7.7,0.8-4.2,0,3.5c-0.1,1.4-0.3,2.7-0.6,4
				c-0.5,2.6-1.1,5.2-2,7.8c-3.3,9.9-9.6,18.7-17.8,25.2c-17.1,13.4-41.4,15.2-60.2,4.4c-9-5.2-16.5-13-21.2-22.3
				c-2.2-4.3-3.8-8.9-4.8-13.7c-0.3-1.3-0.5-2.7-0.7-4c-0.1-1.1-0.1-6.7-0.3-2.3c0.2-3.6,0.7-7.1,1.6-10.6
				C201.8,80.5,223.6,64.1,248,63.7c0.1,0,0-7.5,0-7.5c-24.6,0.3-46.6,17-52.5,41.2c-5,20.7-0.4,44.5,15.2,59.4
				c18.1,17.3,46.7,19.7,67.4,5.7c19-12.9,25.3-34.4,23.6-56.4c-2.2-28.1-25.9-49.6-53.8-49.9C248,56.2,247.9,63.7,248,63.7z"/>
		</g>
	</g>
	<g>
		<g>
			<path class="st2" d="M208.1,414.2c28.2,0.3,54.2,17.3,64.9,43.7c5.3,13,6.5,27.6,3.5,41.3c-0.8,3.5-1.8,6.9-3,10.2
				c-0.6,1.4-1.2,2.8-1.8,4.2c-0.5,1.1-1.3,2.2-1.7,3.4c-0.6,1.9,1.9-2.7,0-0.1c-4.2,5.8-8.7,11.1-14.4,15.6
				c-22.3,17.8-54.2,20.2-78.8,5.9c-24.3-14.2-38-42.3-34.2-70.2c0.5-4,1.4-7.9,2.7-11.8c0.6-1.9,1.3-3.7,2.1-5.6
				c0.7-1.6,1.6-5.4,3.1-6.4c0.1,0-2.1,2.8-0.7,1.2c1-1.1,1.7-2.4,2.5-3.6c1.2-1.6,2.4-3.1,3.7-4.5c2.6-2.9,5.4-5.6,8.5-8
				C176.8,419.6,192.2,414.4,208.1,414.2c1.4,0,2.6-6.4,3.9-6.4c-15.7,0.2-30.9,5.2-43.2,14.9c-10,7.8-17.3,18.5-23,29.7
				c-14.2,27.8-7.8,62.6,15.2,83.6c23.3,21.3,59.2,24.2,85.6,6.8c22.8-15,37.7-44.6,35.1-71.8c-3.5-35.6-34.2-62.8-69.7-63.1
				C210.6,407.8,209.3,414.2,208.1,414.2z"/>
		</g>
	</g>
	<g>
		<g>
			<path class="st3" d="M705.2,205.7c31.3,0.3,60.1,19.2,72.1,48.3c6.4,15.5,6.9,30.4,1.6,46.4c-4.7,14.6-13.8,27.6-25.8,37.1
				c-24.8,19.6-60.2,22.2-87.5,6.2c-13-7.6-23.7-18.9-30.5-32.3c-7.7-15.2-9.7-30.3-5.6-46.7C638.2,230.2,669.9,206.1,705.2,205.7
				c-0.1,0-0.2-7.5-0.4-7.5c-34.9,0.3-66.2,23.8-75.3,57.7c-8,29.8,0.3,64.7,23.4,85.6c25.9,23.5,65.5,26.6,94.8,7.6
				c14.1-9.2,25-22.9,30.8-38.7c5.1-14,5.5-29,3.7-43.7c-4.8-38.9-38.5-68.1-77.4-68.5C704.9,198.3,705,205.7,705.2,205.7z"/>
		</g>
	</g>
	<g>
		<g>
			<path class="st1" d="M506.3,581.7c32.1,0.3,61.6,19.6,74,49.5c3.1,7.5,5,15.5,5.7,23.6c0.8,9,0.3,16.7-2.3,24.5
				c-4.8,14.8-14.1,28.1-26.3,37.8c-25.4,20.2-61.6,22.9-89.7,6.6c-13.5-7.8-24.5-19.5-31.5-33.4c-3.5-7-6-14.5-7.3-22.2
				c-1.3-7.7-1.8-18-0.5-24.3C435.5,607.5,470.3,582,506.3,581.7c0.5,0,0.9-7.4,1.3-7.4c-35.4,0.3-67.4,24-77,58.3
				c-4,14.3-5.7,29.6-2.9,44.2c3.2,16.9,12.1,32.6,24.8,44.1c26.5,24,67,27.4,97.1,8c27.1-17.5,40.9-51.2,37.6-83
				c-4.2-40.5-39.2-71.3-79.6-71.6C507.2,574.3,506.7,581.7,506.3,581.7z"/>
		</g>
	</g>
	<g>
		<g>
			<path class="st4" d="M761.4,691.7c29.8,0.3,57.3,18.3,68.6,46.1c2.8,6.9,4.5,14.2,5.2,21.6c0.3,3.9,0.3,7.9,0.1,11.8
				c0,0.2-0.5,4.5-0.1,1.8c0.4-2.6-0.4,1.5-0.4,1.7c-0.5,2.2-1.1,4.3-1.8,6.4c-4.5,13.8-13.1,26.1-24.4,35.1
				c-23.6,18.8-57.3,21.2-83.3,5.9c-12.5-7.3-22.7-18.2-29-31.2c-3.2-6.4-5.4-13.3-6.6-20.3c-0.6-3.6-1-7.3-1-11
				c0-1.9,0-3.7,0.1-5.6c0.1-1.3,0.3-2.7,0.3-4c-0.2,4.4,0.4-1.5,0.6-2.1C697.6,715.1,727.8,692,761.4,691.7c0.4,0,0.8-7.4,1.1-7.4
				c-33.2,0.3-63,22.7-71.5,55c-7.7,29-2.3,60.1,20.5,81c24.7,22.6,62.7,25.7,90.7,7.2c24.8-16.4,36.8-47,34.1-76.2
				c-3.5-37.8-36-66.7-73.7-67C762.2,684.3,761.7,691.7,761.4,691.7z"/>
		</g>
	</g>
	<g>
		<g>
			<path class="st3" d="M164.7,756c43.8,0.3,84.1,27.2,100.4,68.1c8.1,20.4,9.8,43.1,4.8,64.5c-5,21.5-16.2,40.3-33.6,54.1
				c-34.3,27.3-83.3,30.9-121.2,8.9C77,929.3,55.8,885,62.5,841.4c3.8-24.5,15.6-46.6,35.1-62.1C116.7,764.2,140.4,756.2,164.7,756
				c1.6,0,3-6,4.5-6c-44.5,0.3-83.5,28.2-102.3,68c-20.2,42.9-9.3,95.4,26.1,126.8c35.6,31.6,89.5,35.9,129.7,10.2
				c36.5-23.3,59.1-67.7,53.6-110.9c-6-46.6-42.9-84.9-89.2-92.7c-5.9-1-11.9-1.4-17.9-1.5C167.7,750,166.2,756,164.7,756z"/>
		</g>
	</g>
	<g>
		<g>
			<path class="st4" d="M42.5,234.7c24.8,0.3,47.6,15.1,57.3,38.2c2.4,5.8,3.9,12,4.5,18.3c0.3,3.2,0.2,6.4,0.1,9.7
				c-0.1,3.1,0,0.2,0.1-0.4c-0.2,1.1-0.4,2.1-0.7,3.2c-0.4,1.7-0.9,3.5-1.5,5.2c-3.8,11.4-10.9,21.7-20.4,29.1
				c-19.7,15.6-47.7,17.7-69.4,5.1c-10.4-6-19-15-24.4-25.7c-2.7-5.4-4.7-11.1-5.7-17c-0.6-3.2-0.9-6.4-1-9.6c0-1.4,0-2.8,0-4.2
				c0-0.8,0.7-5,0-0.9c0.2-1.3,0.5-2.6,0.8-3.8C-10.9,254.2,14.4,235,42.5,234.7c0.4,0,0.7-7.4,1-7.4c-28.2,0.3-53.4,19.5-60.2,47
				c-6.1,24.4-1.9,50.4,17.2,68c20.7,19.1,52.7,21.6,76.2,6c20.9-13.9,30.4-39.5,28.5-64c-2.5-32.1-29.9-56.8-61.8-57.1
				C43.1,227.3,42.8,234.7,42.5,234.7z"/>
		</g>
	</g>
	<g>
		<g>
			<path class="st1" d="M851.2,468.7c23.5,0.3,45.1,14.2,54.4,36c1.1,2.6,2,5.4,2.8,8.1c0.3,1.3,0.6,2.6,0.9,3.9
				c0.2,0.9,0.3,1.7,0.4,2.6c0.2,1.7,0.1,3.7,0.2,0.9c-0.2,6.3-1,12.5-3,18.5c-3.6,10.9-10.5,20.7-19.6,27.8
				c-18.7,14.7-45.2,16.6-65.8,4.7c-9.8-5.6-17.8-14-23-24c-2.7-5.3-4.7-11-5.7-16.9c-0.2-1.1-0.3-2.1-0.5-3.2
				c-0.1-0.4,0-2.5-0.1-0.5c-0.1,2,0.2-2.9,0.3-3.9c0.3-3.1,0.8-6.3,1.5-9.3C800.4,487.3,824.4,469.1,851.2,468.7
				c-0.1,0-0.3-7.5-0.4-7.5c-26.8,0.3-50.8,18.6-57.3,44.8c-5.5,22.4,0.3,48.8,17.4,64.7c19.8,18.5,50.5,21.1,73,6
				c10.7-7.1,18.9-17.7,23.1-29.8c3.6-10.4,3.6-21.3,2.6-32.2c-2.9-30.2-28.5-53.3-58.8-53.6C850.9,461.3,851,468.7,851.2,468.7z"/>
		</g>
	</g>
	<circle class="st0" cx="470" cy="412" r="101"/>
	<g>
		<g>
			<path class="st2" d="M807.9-52.3c23.8,0.3,45.7,14.3,55.2,36.3c5.2,12,6,23.4,1.9,35.5c-3.7,10.9-10.6,20.7-19.7,27.8
				c-18.9,14.9-45.7,16.9-66.6,5.1c-20.5-11.6-34.6-37-28.9-59.6C756.5-33.6,780.8-51.9,807.9-52.3c0.2,0,0.2-7.5,0.3-7.5
				C781-59.4,756.7-41.1,750-14.6c-5.9,23.2-0.9,49.5,16.9,66.1c19.9,18.7,51,21.4,73.9,6.4c21-13.8,28.9-37.7,27.2-61.9
				c-2.2-31.3-28.7-55.5-59.9-55.8C808-59.7,807.9-52.3,807.9-52.3z"/>
		</g>
	</g>
	<g>
		<g>
			<path class="st1" d="M7.8,546.6c47.8,0.3,91.8,29.7,109.6,74.2c8.9,22.2,10.8,47.1,5.4,70.4c-5.3,22.9-20.8,43.9-38.9,58.4
				c-37.7,30.2-91.8,34.2-133.5,9.6c-41.3-24.3-64.1-72.4-56.9-119.7c7.2-47.5,49.9-84.5,96.4-91.6C-4.2,547,1.8,546.6,7.8,546.6
				c0.9,0,1.6-7.1,2.4-7.1c-50.4,0.3-95.4,32.7-111.8,80.2c-8,23.1-11.1,46.8-5.7,70.8c5.4,24.3,18.7,46.5,37.4,62.9
				c38.9,34,97.2,38.6,140.8,10.9c40.3-25.5,62.7-76.4,56.1-123.4c-7.1-50.4-47.4-91.6-97.6-99.9c-6.4-1-12.8-1.5-19.3-1.6
				C9.4,539.4,8.5,546.6,7.8,546.6z"/>
		</g>
	</g>
	<g>
		<g>
			<path class="st3" d="M2.4-108.3c46.9,0.3,90.1,29,107.6,72.7c17.4,43.1,7.1,99-30.1,128.7c-37.1,29.6-90.1,33.4-131,9.3
				c-40.5-23.8-62.9-70.9-56-117.4c3.3-22.4,13.6-45.7,29.9-61.7c16.5-16.2,38.9-26.7,61.6-30.2C-9.7-107.9-3.6-108.3,2.4-108.3
				c1.8,0,3.5-5.4,5.2-5.4c-47,0.3-90.8,30.1-110.5,72.6c-21.4,46-9.5,102.2,28.5,135.8c38.2,33.8,95.8,38.4,138.9,11
				c40-25.4,64.6-71.8,58-119.3c-6.8-49.5-46.3-90.1-95.6-98.4c-6.4-1.1-12.9-1.6-19.4-1.6C5.8-113.7,4.1-108.3,2.4-108.3z"/>
		</g>
	</g>
</g>
</svg>
