<?xml version="1.0" encoding="utf-8"?>
<!-- Generator: Adobe Illustrator 26.0.2, SVG Export Plug-In . SVG Version: 6.00 Build 0)  -->
<svg version="1.1" id="visual" xmlns="http://www.w3.org/2000/svg" xmlns:xlink="http://www.w3.org/1999/xlink" x="0px" y="0px"
	 viewBox="0 0 900 900" style="enable-background:new 0 0 900 900;" xml:space="preserve">
<style type="text/css">
	.st0{fill:#FFFFFF;}
	.st1{fill:#EDEEB4;}
	.st2{fill:#F7D1F7;}
	.st3{fill:#346B6D;}
	.st4{fill:#F08360;}
</style>
<rect y="0" class="st0" width="900" height="900"/>
<g>
	<g>
		<g>
			<path class="st1" d="M542.3-59c49.6,0.3,95.2,30.6,114,76.7c9.4,23.2,11.5,49.2,6,73.6c-0.8,3.4-1.7,6.8-2.7,10.1
				c-0.2,0.6-0.6,1.3-0.6,1.9c-0.3,2.7,1.1-4.6,1.6-4.2c0.2,0.2-2.5,5.5-2.7,5.7c-2.6,5.3-5.6,10.4-9,15.2
				c-6.8,9.8-15,18.6-24.4,26.1c-39.1,31.3-95.1,35.5-138.5,10.3c-43.1-25.1-67.2-75-60-124.4c1-6.6,2.5-13.1,4.5-19.4
				c0.2-0.6,0.5-1.3,0.6-1.9c0.9-3.4-3,6.7-1.4,3.6c0.8-1.5,1.4-3,2.1-4.5c1.4-2.9,3-5.8,4.7-8.7c6-10.1,13.5-19.3,22.1-27.3
				c18-16.7,40.8-27.8,65.1-31.5C529.9-58.5,536.1-59,542.3-59c0.5,0,2.5-6.3,2.8-7c0.2-0.6,2.2-7,2.6-7
				c-26.5,0.1-52.4,8.6-73.7,24.5c-21.2,15.9-34.6,37.2-44,61.6c-9.8,25.3-13.7,51.4-7.7,78.2c5.7,25.3,19.6,48.4,39.2,65.5
				c40.4,35.2,101,40,146.4,11.3c21.5-13.6,38.3-33.7,48.1-57.1c10.6-25.3,17.4-50.7,13.5-78.2c-7.4-52.6-49.4-95.6-101.8-104.1
				c-6.6-1.1-13.3-1.6-20-1.6c-0.5,0-2.5,6.3-2.8,7C544.7-65.4,542.7-59,542.3-59z"/>
		</g>
	</g>
	<g>
		<g>
			<path class="st1" d="M248,67.5c21.5,0.3,41.3,13,49.8,33c2.1,4.9,3.4,10.2,4,15.5c1,9.8,1-13.7,0-4c-0.1,1.4-0.3,2.7-0.6,4
				c-0.5,2.6-1.1,5.2-2,7.8c-3.3,9.9-9.6,18.7-17.8,25.2c-17.1,13.4-41.4,15.2-60.2,4.4c-9-5.2-16.5-13-21.2-22.3
				c-2.2-4.3-3.8-8.9-4.8-13.7c-0.3-1.3-0.5-2.7-0.7-4c-0.1-0.5-0.1-0.9-0.2-1.4c-0.4-5.4-0.4-3.3-0.2,6.4c0.4-3.5,0.7-7,1.6-10.4
				C201.8,84.2,223.6,67.8,248,67.5c0.2,0,0-15,0-15c-24.6,0.3-46.6,17-52.5,41.2c-1.3,5.5-1.6,11-1.6,16.6c0,6.5-0.3,13.1,0.7,19.5
				c1.8,11.7,7.5,22.7,16.1,30.9c18.1,17.3,46.7,19.7,67.4,5.7c9.7-6.6,17.2-16.3,21-27.5c3.8-11.4,3.6-24.5,2.7-36.3
				c-2.2-28.1-25.9-49.6-53.9-50C247.9,52.5,247.8,67.5,248,67.5z"/>
		</g>
	</g>
	<g>
		<g>
			<path class="st2" d="M206.1,417.4c28.2,0.3,54.2,17.3,64.9,43.7c5.3,13,6.5,27.6,3.5,41.3c-0.8,3.5-1.8,6.9-3,10.2
				c-0.6,1.4-1.2,2.8-1.8,4.2c-0.5,1.1-1.1,2.2-1.6,3.3c-2.1,4.5,7.2-11.2,3.7-6.3c-4.1,5.8-8.7,11-14.3,15.5
				c-22.3,17.8-54.2,20.2-78.8,5.9c-24.3-14.2-38-42.3-34.2-70.2c1.2-8.6,4.5-15.7,7.7-23.6c0.5-1.2-6.7,10.4-4.4,7.4
				c0.9-1.1,1.6-2.4,2.5-3.5c1.2-1.6,2.4-3.1,3.7-4.5c2.6-2.9,5.4-5.6,8.5-8C174.9,422.8,190.3,417.6,206.1,417.4
				c0.8,0,3.5-5.7,3.9-6.4c0.4-0.7,3.1-6.5,3.8-6.5c-15.7,0.2-30.9,5.2-43.2,14.9c-11.8,9.3-20,22.8-26.8,36
				c-14.2,27.8-7.9,62.6,15.1,83.7c23.3,21.3,59.2,24.2,85.6,6.8c13.3-8.7,21.3-21.4,29-34.9c7.6-13.2,11.4-28.1,9.9-43.4
				c-3.5-35.6-34.2-62.8-69.7-63.1c-0.7,0-3.5,5.7-3.9,6.4C209.5,411.7,206.8,417.4,206.1,417.4z"/>
		</g>
	</g>
	<g>
		<g>
			<path class="st3" d="M705.4,209.5c31.3,0.3,60.1,19.2,72.1,48.3c1.4,3.5,2.6,7.1,3.5,10.7c0.4,1.7,0.8,3.5,1.1,5.3
				c0.2,0.9,0.3,1.8,0.4,2.7c1.3,9,0.1-9.6-0.1-3.7c-0.3,8.2-1.3,16.1-3.8,23.9c-4.7,14.6-13.8,27.6-25.8,37.1
				c-24.8,19.6-60.2,22.2-87.5,6.2c-13-7.6-23.7-18.9-30.5-32.3c-3.5-6.9-6-14.4-7.3-22.1c-0.2-1.1-0.3-2.2-0.5-3.2
				c-0.9-5.6,0,10.2,0.2,5.6c0.1-2.5,0.1-4.9,0.3-7.4c0.4-4.1,1-8.1,2-12.1C638.4,234,670.1,209.8,705.4,209.5c-0.1,0-0.5-15-0.9-15
				c-34.9,0.3-66.2,23.8-75.3,57.7c-2.1,7.9-2.9,16-2.6,24.1c0.3,8.7,0.5,17.6,2.2,26.2c3.2,16.4,11.8,31.6,24.2,42.8
				c25.9,23.5,65.5,26.6,94.8,7.6c14.1-9.2,25-22.9,30.8-38.7c5.9-16.3,5.3-34.1,3.3-51.1c-4.8-38.9-38.5-68.2-77.4-68.6
				C704.8,194.5,705,209.5,705.4,209.5z"/>
		</g>
	</g>
	<g>
		<g>
			<path class="st1" d="M505.7,585.4c32.1,0.3,61.6,19.6,74,49.5c3.1,7.5,5,15.5,5.7,23.6c0.3,3.9,0.4,7.9,0.1,11.9
				c-0.1,1.1-0.2,2.2-0.3,3.3c-0.4,4.2-2.5,5.4,1.1-4.9c-0.8,2.2-1.2,4.6-1.9,6.9c-4.8,14.8-14.1,28.1-26.3,37.8
				c-25.4,20.2-61.6,22.9-89.7,6.6c-13.5-7.8-24.5-19.5-31.5-33.4c-3.5-7-6-14.5-7.3-22.2c-0.7-4.1-1.1-8.2-1.2-12.4
				c0-1.9,0-3.7,0.1-5.6c0-0.9,0.1-1.8,0.2-2.8c0.4-4.7,2.3-7.3-0.9,3.7c5.2-17.7,13.6-33,28.2-44.6
				C470.1,591.5,487.6,585.5,505.7,585.4c1,0,1.9-14.7,2.7-14.8c-35.4,0.3-67.4,24-77,58.3c-4.6,16.4-7.5,34.6-4.2,51.6
				c3.2,16.9,12.1,32.6,24.8,44.1c26.5,24,67,27.4,97.1,8c14.4-9.3,25.6-23.2,31.6-39.2c3.2-8.6,4.7-17.8,6.2-26.9
				c1.4-8.1,1.9-16.1,1.1-24.3c-4.2-40.5-39.2-71.3-79.6-71.6C507.4,570.6,506.4,585.4,505.7,585.4z"/>
		</g>
	</g>
	<g>
		<g>
			<path class="st4" d="M760.9,695.4c29.8,0.3,57.3,18.3,68.6,46.1c2.8,6.9,4.5,14.2,5.2,21.6c0.3,3.9,0.3,7.8,0.1,11.7
				c-0.7,9.1,2.5-12.5,0.6-3.8c-0.5,2.1-1.1,4.3-1.7,6.4c-4.5,13.8-13.1,26.1-24.4,35.1c-23.6,18.8-57.3,21.2-83.3,5.9
				c-12.5-7.3-22.7-18.2-29-31.2c-3.2-6.4-5.4-13.3-6.6-20.3c-0.6-3.6-1-7.3-1-11c0-1.9,0-3.7,0.1-5.6c0.1-1.2,0.3-2.6,0.3-3.9
				c-0.2,12-1.9,10.7-0.5,5.2C697.1,718.8,727.2,695.7,760.9,695.4c0.9,0,1.6-14.8,2.2-14.8c-33.2,0.3-63,22.7-71.5,55
				c-4,15-6.3,32.2-3.4,47.6c2.9,15.6,11,30.1,22.8,40.8c24.7,22.6,62.7,25.7,90.7,7.2c13.2-8.7,23.4-21.6,28.8-36.4
				c2.8-7.7,4-15.7,5.1-23.7c1.2-7.8,2-15.6,1.2-23.5c-3.5-37.8-36-66.7-73.7-67C762.3,680.6,761.5,695.4,760.9,695.4z"/>
		</g>
	</g>
	<g>
		<g>
			<path class="st3" d="M162.5,759c43.8,0.3,84.1,27.2,100.4,68.1c8.1,20.4,9.8,43.1,4.8,64.5c-2.4,10.4-6.4,20.4-11.7,29.6
				c-1.5,2.6-3.2,5-4.8,7.5c6-9.6,4.4-5.7,2.3-3.3c-1.1,1.3-2.2,2.5-3.3,3.7c-3.6,3.8-7.4,7.3-11.5,10.6
				c-34.3,27.3-83.3,30.9-121.2,8.9c-38.2-22.1-59.3-66.4-52.6-110c1.8-11.9,5.7-23.5,11.3-34.1c1.2-2.3,2.6-4.6,4-6.8
				c0.9-1.4,1.9-2.7,2.8-4.1c-6.7,10.6-3.2,4.2-0.8,1.5c4.1-4.5,8.5-8.7,13.3-12.5C114.5,767.2,138.2,759.1,162.5,759
				c0.9,0,4-5.2,4.6-5.9c0.6-0.8,3.5-6,4.5-6c-23.4,0.1-46.3,7.6-65,21.8c-8.7,6.6-16.1,14.4-22.7,23.1
				c-7.1,9.3-14.1,18.6-19.1,29.2c-20.2,42.9-9.3,95.4,26.1,126.8c35.6,31.6,89.5,35.9,129.7,10.2c18.6-11.9,33.9-30.4,44.8-49.5
				c11.6-20.3,16.3-44.2,13.3-67.4c-6-46.6-42.9-84.9-89.2-92.7c-5.9-1-11.9-1.4-17.9-1.5c-0.9,0-4,5.2-4.6,5.9
				C166.4,753.7,163.4,759,162.5,759z"/>
		</g>
	</g>
	<g>
		<g>
			<path class="st4" d="M42,238.4c24.8,0.3,47.6,15.1,57.3,38.2c2.4,5.8,3.9,12,4.5,18.3c0.3,3.2,0.2,6.4,0.1,9.6
				c-0.1,5.4,1.3-8.5,1.1-7.7c-0.3,1-0.4,2-0.6,3c-0.4,1.7-0.9,3.5-1.5,5.2c-3.8,11.4-10.9,21.7-20.4,29.1
				c-19.7,15.6-47.7,17.7-69.4,5.1c-10.4-6-19-15-24.4-25.7c-2.7-5.4-4.7-11.1-5.7-17c-0.6-3.2-0.9-6.4-1-9.6c0-1.4,0-2.8,0-4.2
				c0-0.4,0.1-0.8,0.1-1.2c0.3-4.2,0-1.7-1.1,7.7c0.3-1.2,0.5-2.5,0.8-3.7C-11.4,257.9,13.9,238.7,42,238.4c0.8,0,1.4-14.9,2-14.9
				c-28.2,0.3-53.4,19.5-60.2,47c-3.1,12.6-5.1,27.3-2.9,40.2c2.3,13.5,9.1,26,19.2,35.3c20.7,19.1,52.7,21.6,76.2,6
				c11.3-7.5,20-18.7,24.4-31.6c2.1-6.2,3-12.7,3.8-19.2c0.9-6.9,1.8-13.7,1.3-20.6c-2.5-32.1-29.9-56.8-61.8-57.1
				C43.3,223.6,42.5,238.4,42,238.4z"/>
		</g>
	</g>
	<g>
		<g>
			<path class="st1" d="M851.4,472.5c23.5,0.3,45.1,14.2,54.4,36c1.1,2.6,2,5.4,2.8,8.1c0.3,1.3,0.6,2.6,0.9,3.9
				c0.2,0.8,0.3,1.7,0.4,2.5c1,7.2-0.4-5.4-0.2-6.3c-1,6.3-0.9,12.2-3,18.4c-3.6,10.9-10.5,20.7-19.6,27.8
				c-18.7,14.7-45.2,16.6-65.8,4.7c-9.8-5.6-17.8-14-23-24c-2.7-5.3-4.7-11-5.7-16.9c-0.4-2.2-0.9-9.3-0.3,0
				c0.6,9.3,0.3,2.3,0.5-0.1c0.3-3.1,0.8-6.3,1.5-9.3C800.6,491.1,824.6,472.8,851.4,472.5c-0.1,0-0.5-15-0.8-15
				c-26.8,0.3-50.8,18.6-57.3,44.8c-3,12.2-2.1,26.4-0.1,38.7c2.1,12.8,8.5,24.7,17.9,33.5c19.8,18.5,50.5,21.1,73,6
				c10.7-7.1,18.9-17.7,23.1-29.8c4.4-12.7,3.4-26.3,2.2-39.5c-2.9-30.3-28.5-53.4-58.8-53.7C850.8,457.5,851,472.5,851.4,472.5z"/>
		</g>
	</g>
	<circle class="st0" cx="470" cy="412" r="101"/>
	<g>
		<g>
			<path class="st2" d="M807.7-48.5c23.8,0.3,45.7,14.3,55.2,36.3c2.4,5.5,3.9,11.4,4.5,17.4c0.2,2,0.2,8.9,0.4,0.8
				c0.3-8.1-0.1-1.3-0.5,0.7c-0.5,3.1-1.3,6.1-2.3,9.1c-3.7,10.9-10.6,20.7-19.7,27.8c-18.9,14.9-45.7,16.9-66.6,5.1
				c-10-5.7-18.3-14.2-23.7-24.4c-2.8-5.3-4.7-11-5.8-16.9c-0.6-3.1-0.7-6.2-1-9.3c1,11-0.5,9,0,5.1c0.1-0.7,0.2-1.3,0.3-2
				c0.3-1.5,0.6-3.1,1-4.6C756.4-29.9,780.6-48.2,807.7-48.5c0.3,0,0.4-15,0.5-15c-27.1,0.3-51.4,18.7-58.1,45.1
				c-1.6,6.4-1.9,13-2.1,19.6c-0.2,6.6-0.5,13.3,0.5,19.9c2.1,13,8.6,25.2,18.2,34.2c19.9,18.7,51,21.4,73.9,6.4
				c10.9-7.2,19.4-17.9,23.7-30.2c4.3-12.1,4.7-26.5,3.8-39.1c-2.2-31.3-28.7-55.5-59.9-55.8C808-63.5,807.7-48.5,807.7-48.5z"/>
		</g>
	</g>
	<g>
		<g>
			<path class="st1" d="M6.6,550.1c47.8,0.3,91.8,29.7,109.6,74.2c8.9,22.2,10.8,47.1,5.4,70.4c-0.4,1.9-1,3.7-1.4,5.6
				c-1.3,5.1,3.2-8.4,1.2-3.6c-1.4,3.2-2.6,6.3-4.2,9.4c-2.5,5.1-5.4,10-8.6,14.7c-6.5,9.5-14.5,18-23.5,25.2
				c-37.7,30.2-91.8,34.2-133.5,9.6c-41.3-24.3-64.1-72.4-56.9-119.7c0.4-2.9,1-5.8,1.7-8.7c0.4-1.7,0.8-3.3,1.3-5
				c1.8-6.4-3.4,8.6-0.7,2.4c2.4-5.6,4.9-11.1,8-16.3c5.8-9.9,13.2-19,21.6-26.9c17.2-15.9,39-26.5,62.2-30
				C-5.3,550.6,0.6,550.2,6.6,550.1c1.7,0,3.2-14.2,4.7-14.2c-51.1,0.3-95.6,33.2-112.2,81.3c-4.3,12.4-8.3,24.7-9.8,37.8
				c-1.4,13-0.7,26.3,2.1,39.1c5.4,24.3,18.7,46.5,37.4,62.9c38.9,34,97.2,38.6,140.8,10.9c20.6-13,36.8-32.4,46.1-55
				c9.9-24,16-49.6,12.3-75.6c-7.1-50.4-47.4-91.6-97.6-99.9c-6.4-1-12.8-1.5-19.3-1.6C9.7,535.9,8.1,550.1,6.6,550.1z"/>
		</g>
	</g>
	<g>
		<g>
			<path class="st3" d="M-0.2-105.6c46.9,0.3,90.1,29,107.6,72.7c8.8,21.9,10.7,46.4,5.4,69.3c-2.6,11.3-6.9,22.1-12.7,32.1
				c-2.9,4.9-6.1,9.6-9.6,14.1c-1,1.3-2.1,2.6-3.2,3.8c-0.4,0.5-0.9,1-1.3,1.5c-1.9,2.4,4.7-4.6,4.2-4.2c-2.8,1.5-5.2,4.7-7.7,6.7
				c-37.1,29.6-90.1,33.4-131,9.3c-40.5-23.8-62.9-70.9-56-117.4c1.7-11.5,5.2-22.8,10.3-33.3c2.5-5.1,5.4-10.1,8.6-14.8
				c1.5-2.2,3-4.3,4.7-6.3c1.2-1.5,2.4-2.9,3.6-4.3c0.4-0.5,0.9-1,1.3-1.5c2.2-2.9-6.5,6.1-3.7,3.8c9-7.5,17.7-14.4,28.3-19.6
				c10.4-5.1,21.7-8.7,33.2-10.5C-12.3-105.2-6.3-105.6-0.2-105.6c1.1,0,4.5-4.5,5.3-5.3c0.8-0.8,4-5.4,5.2-5.4
				c-25.1,0.1-49.6,8.1-69.7,23.2c-9.6,7.3-18.2,16.1-26.3,25c-8,8.8-14.8,18.8-19.8,29.7C-126.9,7.6-115,63.8-77,97.3
				c38.2,33.8,95.8,38.4,138.9,11c10.4-6.6,19-14.9,27.5-23.6c8.3-8.6,16-17.6,21.9-28.1c12.5-22,17.3-47.9,13.9-73
				c-6.8-49.5-46.3-90.1-95.6-98.4c-6.4-1.1-12.9-1.6-19.4-1.6c-1.1,0-4.5,4.5-5.3,5.3C4.1-110.2,0.9-105.6-0.2-105.6z"/>
		</g>
	</g>
</g>
</svg>
