<?xml version="1.0" encoding="utf-8"?>
<!-- Generator: Adobe Illustrator 26.0.2, SVG Export Plug-In . SVG Version: 6.00 Build 0)  -->
<svg version="1.1" id="visual" xmlns="http://www.w3.org/2000/svg" xmlns:xlink="http://www.w3.org/1999/xlink" x="0px" y="0px"
	 viewBox="0 0 900 900" style="enable-background:new 0 0 900 900;" xml:space="preserve">
<style type="text/css">
	.st0{fill:#FFFFFF;}
	.st1{fill:#EDEEB4;}
	.st2{fill:#F7D1F7;}
	.st3{fill:#346B6D;}
	.st4{fill:#F08360;}
</style>
<rect y="0" class="st0" width="900" height="900"/>
<g>
	<circle class="st1" cx="545" cy="57" r="123"/>
	<g>
		<g>
			<path class="st1" d="M246.8,61.5c21.5,0.3,41.3,13,49.8,33c8.7,20.6,3.8,46.5-14.1,60.6c-17.1,13.4-41.4,15.2-60.2,4.4
				c-18.7-10.8-29.4-32.3-26.7-53.7c1.6-12.8,7.7-24.7,17.9-32.7C223,65.5,234.7,61.6,246.8,61.5c0.8,0,1.6-2.9,2.3-2.9
				c-20.7,0.3-38.5,12-48.8,29.5c-12.6,21.4-8.7,49.4,9.3,66.5c18.1,17.3,46.7,19.7,67.4,5.7c16.5-11.2,27.3-31.2,26-51.2
				c-1.8-28.3-25.8-50.2-53.9-50.5C248.4,58.5,247.6,61.5,246.8,61.5z"/>
		</g>
	</g>
	<circle class="st2" cx="210" cy="481" r="70"/>
	<g>
		<g>
			<path class="st3" d="M705.1,205.7c31.3,0.3,60.1,19.2,72.1,48.3c6.4,15.5,7.1,30.5,1.9,46.4c-4.7,14.6-13.8,27.6-25.8,37.1
				c-24.8,19.6-60.2,22.2-87.5,6.2c-13-7.6-23.7-18.9-30.5-32.3c-7.6-15.1-9.9-30.6-5.9-46.7C638,230.2,669.7,206.1,705.1,205.7
				c0,0-0.1-7.5-0.2-7.5c-34.9,0.3-66.2,23.8-75.3,57.7c-8.1,30-0.1,64.6,23.2,85.6c25.9,23.5,65.5,26.6,94.8,7.6
				c14.1-9.2,25-22.9,30.8-38.7c4.9-13.5,5.6-28.3,4.1-42.5c-4.2-39.4-38.2-69.3-77.6-69.7C704.9,198.3,704.9,205.7,705.1,205.7z"/>
		</g>
	</g>
	<circle class="st4" cx="507" cy="658" r="80"/>
	<g>
		<g>
			<path class="st1" d="M760.7,691.5c29.6,0.3,56.9,18,68.3,45.5c5.8,13.9,7.2,29.5,4,44.2c-0.4,2-0.9,3.9-1.5,5.8
				c-0.4,1.2-0.7,2-1.7,4.2c-1.7,3.5-3.8,6.9-6.1,10.1c-4,5.7-8.9,10.8-14.3,15.1c-23.4,18.6-56.8,21.2-82.8,6.2
				c-25.8-14.8-40.5-44.4-36.6-73.9c1.3-9.6,3.3-15.4,8.5-23.4c4.4-6.8,9.9-12.8,16.2-17.8C727.8,697.1,744,691.7,760.7,691.5
				c1,0,1.8-7,2.7-7c-32.7,0.3-59,20.9-70.4,50.8c-5.4,14.2-7.8,28.8-5,43.9c2.9,15.6,11,30.1,22.8,40.8
				c24.7,22.6,62.7,25.7,90.7,7.2c23.9-15.8,38.3-47.3,35.7-75.8c-3.5-37.8-36-66.7-73.7-67C762.4,684.5,761.5,691.5,760.7,691.5z"
				/>
		</g>
	</g>
	<circle class="st3" cx="167" cy="861" r="108"/>
	<circle class="st4" cx="43" cy="293" r="62"/>
	<circle class="st2" cx="851" cy="524" r="59"/>
	<circle class="st0" cx="470" cy="412" r="101"/>
	<circle class="st2" cx="808" cy="4" r="60"/>
	<g>
		<g>
			<path class="st1" d="M8.5,546.7c47.6,0.3,91.4,29.4,109.4,73.6c9.4,23.2,11.6,49.3,3.9,73.2c-7.1,22.1-20.9,41.8-39.1,56.3
				c-37.5,29.7-91,33.6-132.4,9.6c-41-23.8-67.9-75.2-56.4-122.6c11.1-45.9,50.1-81.6,96.8-88.7C-3.4,547.2,2.5,546.8,8.5,546.7
				c0.4,0,0.7-7.4,0.9-7.4c-51.1,0.3-97.5,34-112.7,83c-14.4,46.5-3.1,98.6,34.1,131.2c38.9,34,97.2,38.6,140.8,10.9
				c41.1-26.1,61.4-76.1,54.7-123.7c-7.1-50.4-47.4-91.6-97.6-99.9c-6.4-1-12.8-1.5-19.3-1.6C9.1,539.3,8.8,546.7,8.5,546.7z"/>
		</g>
	</g>
	<circle class="st3" cx="5" cy="5" r="116"/>
</g>
</svg>
